<svg width="228" height="228" viewBox="0 0 228 228" fill="none" xmlns="http://www.w3.org/2000/svg">
<rect width="228" height="228" rx="48" fill="url(#paint0_linear_10387_21289)"/>
<path d="M109.114 150.448L70.8955 112.1C70.7839 111.992 70.6951 111.861 70.6346 111.718C70.574 111.574 70.5428 111.419 70.5428 111.263C70.5428 111.107 70.574 110.952 70.6346 110.808C70.6951 110.665 70.7839 110.534 70.8955 110.426L89.1695 92.0991C89.2781 91.9872 89.408 91.8984 89.5514 91.8376C89.6949 91.7769 89.8489 91.7456 90.0046 91.7456C90.1603 91.7456 90.3144 91.7769 90.4578 91.8376C90.6013 91.8984 90.7312 91.9872 90.8397 92.0991L109.949 111.263L150.847 70.3646C138.899 60.1564 123.578 54.7941 107.89 55.3295C91.6131 55.9043 76.1819 62.7444 64.8014 74.4294C53.4209 86.1145 46.9656 101.747 46.776 118.079C46.7009 126.489 48.2963 134.83 51.4692 142.615C54.642 150.4 59.3287 157.474 65.2559 163.423C71.1832 169.373 78.2324 174.08 85.9924 177.269C93.7523 180.458 102.068 182.065 110.454 181.998C126.917 181.845 142.675 175.269 154.387 163.665C166.1 152.061 172.847 136.34 173.2 119.832C173.404 110.675 171.615 101.583 167.956 93.1898L110.881 150.448C110.768 150.57 110.632 150.667 110.48 150.734C110.327 150.8 110.163 150.835 109.997 150.835C109.832 150.835 109.667 150.8 109.515 150.734C109.363 150.667 109.227 150.57 109.114 150.448Z" fill="#00E3D4"/>
<path d="M167.914 93.1889L200.598 60.3533C200.814 60.1283 200.934 59.8282 200.934 59.5159C200.934 59.2036 200.814 58.9034 200.598 58.6784L182.304 40.352C182.197 40.2407 182.069 40.1521 181.927 40.0916C181.786 40.0312 181.633 40 181.479 40C181.325 40 181.172 40.0312 181.03 40.0916C180.889 40.1521 180.761 40.2407 180.654 40.352L150.902 70.1884C158.249 76.4531 164.068 84.3207 167.914 93.1889Z" fill="#00E3D4"/>
<defs>
<linearGradient id="paint0_linear_10387_21289" x1="96.9" y1="233.7" x2="391.875" y2="-656.925" gradientUnits="userSpaceOnUse">
<stop stop-color="#0C1A7B"/>
<stop offset="1" stop-color="#32D3E1"/>
</linearGradient>
</defs>
</svg>
