<svg width="348" height="47" viewBox="0 0 348 47" fill="none" xmlns="http://www.w3.org/2000/svg">
<path d="M184.488 44.9161L182.727 39.7958H170.18L168.425 44.9161C168.398 44.9931 168.348 45.0598 168.282 45.1069C168.215 45.1539 168.136 45.179 168.054 45.1785H154.869C154.822 45.1783 154.775 45.1668 154.733 45.1447C154.691 45.1227 154.655 45.0908 154.629 45.0518C154.602 45.0129 154.584 44.968 154.578 44.9209C154.573 44.8739 154.578 44.8261 154.594 44.7816L169.637 6.68658C169.665 6.61468 169.715 6.55301 169.778 6.50962C169.842 6.46622 169.918 6.44313 169.995 6.44336H182.918C182.995 6.44399 183.07 6.46743 183.134 6.51071C183.197 6.55399 183.247 6.61518 183.276 6.68658L198.312 44.7816C198.33 44.8255 198.337 44.8732 198.332 44.9204C198.327 44.9675 198.311 45.0127 198.284 45.052C198.258 45.0912 198.222 45.1233 198.18 45.1454C198.138 45.1674 198.091 45.1788 198.044 45.1785H184.852C184.772 45.1776 184.694 45.152 184.629 45.105C184.564 45.058 184.515 44.9921 184.488 44.9161ZM173.179 30.592H179.727L176.453 21.5547L173.179 30.592Z" fill="#10284D"/>
<path d="M313.862 32.289C313.862 32.2393 313.875 32.1906 313.9 32.1474C313.924 32.1042 313.959 32.0678 314.001 32.0416C314.043 32.0154 314.09 32.0003 314.14 31.9977C314.189 31.995 314.239 32.005 314.283 32.0265C318.29 34.0357 322.696 35.1142 327.175 35.1819C330.838 35.1819 332.67 34.6699 332.67 33.6458C332.67 33.0058 332.242 32.5194 331.451 32.2122C329.811 31.6866 328.137 31.276 326.441 30.9833C317.098 29.0632 312.4 24.6405 312.4 17.5809C312.4 9.5484 319.242 5.50977 331.272 5.50977C336.71 5.50977 341.388 6.1946 345.192 7.56428C345.267 7.59091 345.332 7.64036 345.378 7.70576C345.423 7.77115 345.448 7.84922 345.447 7.92911V19.021C345.446 19.0697 345.433 19.1175 345.409 19.16C345.385 19.2024 345.351 19.2383 345.31 19.2643C345.269 19.2903 345.222 19.3057 345.174 19.309C345.125 19.3123 345.076 19.3035 345.032 19.2834C340.988 17.3538 336.574 16.3316 332.096 16.288C328.611 16.288 327.392 16.6464 327.392 17.6705C327.392 18.6945 328.732 19.2578 333.685 20.2306C343.028 22.0163 347.668 26.3686 347.668 33.1722C347.668 37.6205 345.9 40.9487 342.294 43.048C338.688 45.1473 333.927 46.2162 327.941 46.2162C322.395 46.2162 317.774 45.5761 314.149 44.2961C314.075 44.2686 314.01 44.219 313.964 44.1538C313.919 44.0886 313.894 44.0109 313.894 43.9312L313.862 32.289Z" fill="#10284D"/>
<path d="M145.385 17.292V6.83378C145.385 6.73024 145.344 6.63093 145.271 6.55771C145.198 6.48449 145.099 6.44336 144.996 6.44336H112.549C112.498 6.44335 112.448 6.4535 112.401 6.4732C112.354 6.49289 112.312 6.52175 112.276 6.55809C112.24 6.59443 112.212 6.63753 112.193 6.68486C112.174 6.73219 112.165 6.78282 112.166 6.83378V44.7945C112.166 44.8963 112.206 44.994 112.278 45.066C112.35 45.138 112.447 45.1785 112.549 45.1785H125.313C125.415 45.1785 125.512 45.138 125.584 45.066C125.656 44.994 125.696 44.8963 125.696 44.7945V32.3969H139.992C140.095 32.3969 140.194 32.3558 140.267 32.2826C140.34 32.2093 140.381 32.11 140.381 32.0065V22.3227C140.381 22.2717 140.371 22.2213 140.352 22.1743C140.332 22.1272 140.303 22.0846 140.267 22.0489C140.231 22.0131 140.188 21.985 140.141 21.9661C140.093 21.9471 140.043 21.9378 139.992 21.9387H125.703V17.676H145.015C145.114 17.6727 145.208 17.6308 145.277 17.5591C145.347 17.4875 145.385 17.3917 145.385 17.292Z" fill="#10284D"/>
<path d="M296.661 16.7096V6.83378C296.661 6.73024 296.62 6.63093 296.546 6.55771C296.473 6.48449 296.374 6.44336 296.271 6.44336H263.805C263.702 6.44336 263.603 6.48449 263.53 6.55771C263.457 6.63093 263.416 6.73024 263.416 6.83378V44.7944C263.416 44.8454 263.426 44.8959 263.446 44.9429C263.465 44.9899 263.494 45.0325 263.53 45.0683C263.567 45.104 263.61 45.1322 263.657 45.1511C263.704 45.17 263.754 45.1793 263.805 45.1785H296.246C296.297 45.1793 296.347 45.17 296.394 45.1511C296.441 45.1322 296.484 45.104 296.521 45.0683C296.557 45.0325 296.586 44.9899 296.605 44.9429C296.625 44.8959 296.635 44.8454 296.635 44.7944V34.9123C296.635 34.8613 296.625 34.8108 296.605 34.7638C296.586 34.7168 296.557 34.6742 296.521 34.6384C296.484 34.6027 296.441 34.5745 296.394 34.5556C296.347 34.5367 296.297 34.5274 296.246 34.5282H276.933V30.656H291.248C291.3 30.656 291.35 30.6459 291.397 30.6263C291.445 30.6067 291.488 30.5779 291.524 30.5416C291.56 30.5054 291.589 30.4623 291.608 30.415C291.628 30.3676 291.638 30.3168 291.638 30.2656V21.3563C291.638 21.3053 291.628 21.2548 291.608 21.2078C291.588 21.1608 291.56 21.1182 291.523 21.0824C291.487 21.0467 291.444 21.0185 291.397 20.9996C291.35 20.9807 291.299 20.9714 291.248 20.9722H276.959V17.0936H296.271C296.322 17.0944 296.373 17.0851 296.42 17.0662C296.467 17.0473 296.51 17.0191 296.546 16.9834C296.582 16.9477 296.611 16.905 296.631 16.858C296.65 16.811 296.661 16.7605 296.661 16.7096Z" fill="#10284D"/>
<path d="M26.2625 6.83378V23.3276L13.3068 6.68658C13.2523 6.61658 13.1825 6.56 13.1029 6.52118C13.0233 6.48235 12.9358 6.4623 12.8473 6.46256H0.382966C0.332137 6.46255 0.281822 6.4727 0.234943 6.4924C0.188063 6.51209 0.145545 6.54095 0.109902 6.57729C0.0742592 6.61363 0.046185 6.65673 0.0273207 6.70406C0.00845646 6.75139 -0.0007938 6.80202 5.334e-05 6.85298V44.8137C5.334e-05 44.8641 0.00994658 44.914 0.0291905 44.9606C0.0484344 45.0072 0.0766421 45.0495 0.1122 45.0852C0.147758 45.1209 0.189964 45.1491 0.236423 45.1684C0.282882 45.1877 0.332679 45.1977 0.382966 45.1977H13.1472C13.1975 45.1977 13.2473 45.1877 13.2938 45.1684C13.3402 45.1491 13.3824 45.1209 13.418 45.0852C13.4535 45.0495 13.4818 45.0072 13.501 44.9606C13.5202 44.914 13.5301 44.8641 13.5301 44.8137V28.3327L26.4922 44.9737C26.5457 45.0432 26.6144 45.0995 26.6929 45.1383C26.7715 45.1771 26.8578 45.1974 26.9454 45.1977H39.4097C39.46 45.1977 39.5098 45.1877 39.5562 45.1684C39.6027 45.1491 39.6449 45.1209 39.6805 45.0852C39.716 45.0495 39.7442 45.0072 39.7635 44.9606C39.7827 44.914 39.7926 44.8641 39.7926 44.8137V6.83378C39.7935 6.78282 39.7842 6.73219 39.7653 6.68486C39.7464 6.63753 39.7184 6.59443 39.6827 6.55809C39.6471 6.52175 39.6046 6.49289 39.5577 6.4732C39.5108 6.4535 39.4605 6.44335 39.4097 6.44336H26.6454C26.5433 6.44504 26.4459 6.48692 26.3743 6.55996C26.3026 6.633 26.2625 6.73134 26.2625 6.83378Z" fill="#10284D"/>
<path d="M248.297 6.44435H234.001C233.935 6.44475 233.871 6.46203 233.814 6.49453C233.757 6.52703 233.709 6.57367 233.675 6.62996L224.37 21.5684V6.84757C224.37 6.74403 224.329 6.64472 224.256 6.5715C224.183 6.49828 224.084 6.45715 223.981 6.45715H211.216C211.113 6.45715 211.014 6.49828 210.941 6.5715C210.868 6.64472 210.827 6.74403 210.827 6.84757V44.8082C210.827 44.8592 210.837 44.9097 210.857 44.9567C210.877 45.0037 210.905 45.0463 210.942 45.0821C210.978 45.1178 211.021 45.146 211.068 45.1649C211.115 45.1838 211.166 45.1931 211.216 45.1923H223.981C224.083 45.1923 224.181 45.152 224.254 45.0802C224.327 45.0083 224.368 44.9107 224.37 44.8082V30.0874L233.675 45.0258C233.71 45.0805 233.758 45.1256 233.815 45.1569C233.872 45.1882 233.936 45.2047 234.001 45.2051H248.297C248.348 45.205 248.398 45.1911 248.442 45.1649C248.487 45.1387 248.523 45.1011 248.548 45.056C248.573 45.0109 248.585 44.96 248.583 44.9085C248.582 44.8571 248.567 44.807 248.539 44.7634L236.751 25.8375L248.539 6.91798C248.576 6.87454 248.599 6.82112 248.606 6.76448C248.612 6.70784 248.602 6.65054 248.576 6.59981C248.55 6.54909 248.51 6.50724 248.46 6.47956C248.41 6.45189 248.353 6.43963 248.297 6.44435Z" fill="#10284D"/>
<path d="M72.9777 36.2988L60.4177 23.6965C60.381 23.6607 60.3518 23.6179 60.3319 23.5706C60.312 23.5234 60.3018 23.4726 60.3018 23.4213C60.3018 23.37 60.312 23.3191 60.3319 23.2719C60.3518 23.2246 60.381 23.1818 60.4177 23.146L66.4232 17.1233C66.4589 17.0865 66.5016 17.0573 66.5487 17.0373C66.5959 17.0174 66.6465 17.0071 66.6977 17.0071C66.7488 17.0071 66.7995 17.0174 66.8466 17.0373C66.8937 17.0573 66.9364 17.0865 66.9721 17.1233L73.2521 23.4213L86.6929 9.98045C82.7661 6.62566 77.7311 4.86339 72.5756 5.03936C67.2263 5.22824 62.155 7.47616 58.4149 11.3163C54.6748 15.1565 52.5534 20.2938 52.4911 25.6614C52.4664 28.4252 52.9907 31.1663 54.0334 33.7248C55.0761 36.2832 56.6164 38.6079 58.5643 40.5632C60.5122 42.5185 62.8288 44.0653 65.3791 45.1133C67.9293 46.1613 70.6621 46.6896 73.4181 46.6674C78.8286 46.6171 84.0071 44.4562 87.8562 40.6427C91.7054 36.8291 93.9228 31.6624 94.0387 26.2374C94.106 23.2279 93.518 20.2399 92.3155 17.4817L73.5584 36.2988C73.5214 36.339 73.4765 36.371 73.4265 36.3929C73.3765 36.4148 73.3226 36.4261 73.2681 36.4261C73.2136 36.4261 73.1596 36.4148 73.1096 36.3929C73.0597 36.371 73.0147 36.339 72.9777 36.2988Z" fill="#00E3D4"/>
<path d="M92.3036 17.4799L103.045 6.68888C103.116 6.61494 103.155 6.51631 103.155 6.41367C103.155 6.31104 103.116 6.21239 103.045 6.13845L97.0328 0.11569C96.9977 0.0791038 96.9555 0.0499982 96.9089 0.030119C96.8623 0.0102397 96.8122 0 96.7616 0C96.7109 0 96.6608 0.0102397 96.6142 0.030119C96.5675 0.0499982 96.5254 0.0791038 96.4903 0.11569L86.7129 9.92108C89.1272 11.9799 91.0396 14.5655 92.3036 17.4799Z" fill="#00E3D4"/>
</svg>
