<svg width="349" height="48" viewBox="0 0 349 48" fill="none" xmlns="http://www.w3.org/2000/svg">
<path d="M185.154 45.25L183.393 40.1297H170.846L169.091 45.25C169.064 45.3271 169.014 45.3938 168.948 45.4409C168.881 45.4879 168.802 45.513 168.72 45.5125H155.535C155.488 45.5123 155.441 45.5007 155.399 45.4787C155.357 45.4566 155.321 45.4248 155.295 45.3858C155.268 45.3469 155.25 45.3019 155.245 45.2549C155.239 45.2079 155.244 45.1601 155.261 45.1156L170.303 7.02056C170.331 6.94867 170.381 6.88699 170.444 6.8436C170.508 6.80021 170.584 6.77712 170.661 6.77735H183.584C183.661 6.77798 183.736 6.80141 183.8 6.84469C183.863 6.88798 183.913 6.94917 183.942 7.02056L198.978 45.1156C198.996 45.1595 199.003 45.2072 198.998 45.2543C198.993 45.3015 198.977 45.3467 198.95 45.386C198.924 45.4252 198.888 45.4573 198.846 45.4794C198.804 45.5014 198.757 45.5128 198.71 45.5125H185.518C185.438 45.5116 185.36 45.486 185.295 45.439C185.23 45.392 185.181 45.326 185.154 45.25ZM173.845 30.926H180.393L177.119 21.8887L173.845 30.926Z" fill="white"/>
<path d="M314.528 32.6229C314.528 32.5733 314.541 32.5246 314.566 32.4814C314.59 32.4381 314.625 32.4017 314.667 32.3756C314.709 32.3494 314.757 32.3343 314.806 32.3316C314.855 32.329 314.905 32.3389 314.949 32.3605C318.956 34.3697 323.362 35.4482 327.841 35.5159C331.504 35.5159 333.336 35.0039 333.336 33.9798C333.336 33.3398 332.908 32.8534 332.117 32.5461C330.477 32.0206 328.803 31.61 327.107 31.3173C317.764 29.3971 313.066 24.9745 313.066 17.9149C313.066 9.88238 319.908 5.84375 331.938 5.84375C337.376 5.84375 342.054 6.52859 345.858 7.89827C345.933 7.92489 345.998 7.97435 346.044 8.03974C346.089 8.10513 346.114 8.18321 346.113 8.26309V19.3549C346.112 19.4037 346.099 19.4515 346.075 19.4939C346.051 19.5364 346.017 19.5723 345.976 19.5983C345.935 19.6243 345.888 19.6397 345.84 19.643C345.791 19.6463 345.743 19.6375 345.698 19.6174C341.654 17.6878 337.24 16.6656 332.762 16.622C329.277 16.622 328.058 16.9804 328.058 18.0045C328.058 19.0285 329.398 19.5918 334.351 20.5646C343.694 22.3503 348.334 26.7026 348.334 33.5062C348.334 37.9545 346.566 41.2826 342.96 43.382C339.354 45.4813 334.593 46.5502 328.607 46.5502C323.061 46.5502 318.44 45.9101 314.815 44.6301C314.741 44.6026 314.676 44.553 314.63 44.4878C314.585 44.4225 314.56 44.3449 314.56 44.2652L314.528 32.6229Z" fill="white"/>
<path d="M146.051 17.626V7.16777C146.051 7.06422 146.01 6.96491 145.937 6.8917C145.864 6.81848 145.765 6.77734 145.662 6.77734H113.215C113.164 6.77734 113.114 6.78748 113.067 6.80718C113.02 6.82688 112.978 6.85574 112.942 6.89208C112.906 6.92842 112.878 6.97151 112.859 7.01884C112.84 7.06618 112.831 7.1168 112.832 7.16777V45.1284C112.832 45.2303 112.872 45.328 112.944 45.4C113.016 45.472 113.113 45.5125 113.215 45.5125H125.979C126.081 45.5125 126.178 45.472 126.25 45.4C126.322 45.328 126.362 45.2303 126.362 45.1284V32.7309H140.658C140.761 32.7309 140.86 32.6898 140.933 32.6165C141.006 32.5433 141.047 32.444 141.047 32.3405V22.6567C141.047 22.6057 141.037 22.5553 141.018 22.5082C140.998 22.4612 140.969 22.4186 140.933 22.3829C140.897 22.3471 140.854 22.319 140.807 22.3C140.759 22.2811 140.709 22.2718 140.658 22.2727H126.369V18.01H145.681C145.78 18.0067 145.874 17.9648 145.943 17.8931C146.013 17.8214 146.051 17.7257 146.051 17.626Z" fill="white"/>
<path d="M297.327 17.0436V7.16777C297.327 7.06422 297.286 6.96491 297.213 6.8917C297.14 6.81848 297.04 6.77734 296.937 6.77734H264.471C264.368 6.77734 264.269 6.81848 264.196 6.8917C264.123 6.96491 264.082 7.06422 264.082 7.16777V45.1284C264.082 45.1794 264.092 45.2299 264.112 45.2769C264.131 45.3239 264.16 45.3665 264.196 45.4023C264.233 45.438 264.276 45.4662 264.323 45.4851C264.37 45.504 264.421 45.5133 264.471 45.5125H296.912C296.963 45.5133 297.013 45.504 297.06 45.4851C297.107 45.4662 297.15 45.438 297.187 45.4023C297.223 45.3665 297.252 45.3239 297.271 45.2769C297.291 45.2299 297.301 45.1794 297.301 45.1284V35.2462C297.301 35.1953 297.291 35.1448 297.271 35.0978C297.252 35.0508 297.223 35.0081 297.187 34.9724C297.15 34.9366 297.107 34.9085 297.06 34.8896C297.013 34.8707 296.963 34.8614 296.912 34.8622H277.599V30.99H291.914C291.966 30.99 292.016 30.9799 292.063 30.9603C292.111 30.9406 292.154 30.9119 292.19 30.8756C292.226 30.8394 292.255 30.7963 292.274 30.749C292.294 30.7016 292.304 30.6508 292.304 30.5996V21.6902C292.304 21.6393 292.294 21.5888 292.274 21.5418C292.254 21.4948 292.226 21.4521 292.189 21.4164C292.153 21.3807 292.11 21.3525 292.063 21.3336C292.016 21.3147 291.965 21.3054 291.914 21.3062H277.625V17.4276H296.937C296.988 17.4284 297.039 17.4191 297.086 17.4002C297.133 17.3813 297.176 17.3531 297.212 17.3174C297.248 17.2816 297.277 17.239 297.297 17.192C297.316 17.145 297.327 17.0945 297.327 17.0436Z" fill="white"/>
<path d="M26.9285 7.16777V23.6616L13.9728 7.02056C13.9183 6.95056 13.8486 6.89399 13.7689 6.85516C13.6893 6.81633 13.6019 6.79628 13.5133 6.79654H1.04898C0.998153 6.79654 0.947838 6.80668 0.900958 6.82638C0.854078 6.84608 0.81156 6.87494 0.775918 6.91128C0.740275 6.94762 0.712201 6.99071 0.693336 7.03804C0.674472 7.08538 0.665222 7.136 0.666069 7.18697V45.1476C0.666069 45.1981 0.675962 45.248 0.695206 45.2946C0.71445 45.3412 0.742658 45.3835 0.778216 45.4192C0.813774 45.4548 0.855979 45.4831 0.902438 45.5024C0.948897 45.5217 0.998694 45.5317 1.04898 45.5317H13.8132C13.8635 45.5317 13.9133 45.5217 13.9598 45.5024C14.0062 45.4831 14.0484 45.4548 14.084 45.4192C14.1196 45.3835 14.1478 45.3412 14.167 45.2946C14.1863 45.248 14.1962 45.1981 14.1962 45.1476V28.6667L27.1583 45.3076C27.2118 45.3772 27.2804 45.4335 27.3589 45.4723C27.4375 45.5111 27.5238 45.5314 27.6114 45.5317H40.0757C40.126 45.5317 40.1758 45.5217 40.2223 45.5024C40.2687 45.4831 40.3109 45.4548 40.3465 45.4192C40.382 45.3835 40.4103 45.3412 40.4295 45.2946C40.4487 45.248 40.4586 45.1981 40.4586 45.1476V7.16777C40.4595 7.1168 40.4502 7.06618 40.4313 7.01884C40.4125 6.97151 40.3844 6.92842 40.3487 6.89208C40.3131 6.85574 40.2706 6.82688 40.2237 6.80718C40.1769 6.78748 40.1265 6.77734 40.0757 6.77734H27.3115C27.2093 6.77902 27.1119 6.82091 27.0403 6.89394C26.9686 6.96698 26.9285 7.06532 26.9285 7.16777Z" fill="white"/>
<path d="M248.963 6.77833H234.667C234.601 6.77874 234.537 6.79602 234.48 6.82852C234.423 6.86102 234.375 6.90765 234.341 6.96395L225.036 21.9024V7.18156C225.036 7.07801 224.995 6.9787 224.922 6.90549C224.849 6.83227 224.75 6.79113 224.647 6.79113H211.882C211.779 6.79113 211.68 6.83227 211.607 6.90549C211.534 6.9787 211.493 7.07801 211.493 7.18156V45.1422C211.493 45.1932 211.503 45.2436 211.523 45.2907C211.543 45.3377 211.571 45.3803 211.608 45.4161C211.644 45.4518 211.687 45.4799 211.734 45.4989C211.781 45.5178 211.832 45.5271 211.882 45.5262H224.647C224.749 45.5263 224.847 45.486 224.92 45.4142C224.993 45.3423 225.034 45.2446 225.036 45.1422V30.4213L234.341 45.3598C234.376 45.4145 234.424 45.4596 234.481 45.4908C234.538 45.5221 234.602 45.5387 234.667 45.539H248.963C249.014 45.539 249.064 45.5251 249.109 45.4989C249.153 45.4727 249.189 45.4351 249.214 45.39C249.239 45.3449 249.251 45.294 249.249 45.2425C249.248 45.1911 249.233 45.1409 249.205 45.0974L237.417 26.1715L249.205 7.25196C249.242 7.20853 249.265 7.15511 249.272 7.09847C249.278 7.04183 249.268 6.98452 249.242 6.9338C249.216 6.88308 249.176 6.84122 249.126 6.81355C249.076 6.78587 249.019 6.77362 248.963 6.77833Z" fill="white"/>
<path d="M73.6437 36.6328L61.0837 24.0305C61.047 23.9947 61.0178 23.9519 60.9979 23.9046C60.978 23.8573 60.9678 23.8066 60.9678 23.7552C60.9678 23.7039 60.978 23.6531 60.9979 23.6059C61.0178 23.5586 61.047 23.5158 61.0837 23.48L67.0892 17.4573C67.1249 17.4205 67.1676 17.3913 67.2148 17.3713C67.2619 17.3514 67.3125 17.3411 67.3637 17.3411C67.4148 17.3411 67.4655 17.3514 67.5126 17.3713C67.5598 17.3913 67.6025 17.4205 67.6381 17.4573L73.9181 23.7552L87.3589 10.3144C83.4321 6.95965 78.3971 5.19737 73.2416 5.37334C67.8923 5.56222 62.821 7.81015 59.0809 11.6503C55.3408 15.4905 53.2194 20.6278 53.1571 25.9954C53.1324 28.7592 53.6567 31.5003 54.6994 34.0588C55.7422 36.6172 57.2824 38.9419 59.2303 40.8972C61.1782 42.8525 63.4949 44.3993 66.0451 45.4473C68.5953 46.4953 71.3281 47.0236 74.0841 47.0014C79.4946 46.9511 84.6731 44.7902 88.5222 40.9766C92.3714 37.1631 94.5889 31.9964 94.7047 26.5714C94.772 23.5619 94.184 20.5739 92.9816 17.8157L74.2245 36.6328C74.1874 36.6729 74.1425 36.705 74.0925 36.7269C74.0426 36.7488 73.9886 36.7601 73.9341 36.7601C73.8796 36.7601 73.8256 36.7488 73.7756 36.7269C73.7257 36.705 73.6807 36.6729 73.6437 36.6328Z" fill="#00E3D4"/>
<path d="M92.9697 17.8139L103.711 7.02287C103.782 6.94893 103.821 6.85029 103.821 6.74766C103.821 6.64502 103.782 6.54637 103.711 6.47243L97.6988 0.449675C97.6637 0.413088 97.6215 0.383983 97.5749 0.364103C97.5283 0.344224 97.4782 0.333984 97.4276 0.333984C97.3769 0.333984 97.3268 0.344224 97.2802 0.364103C97.2336 0.383983 97.1915 0.413088 97.1563 0.449675L87.3789 10.2551C89.7932 12.3139 91.7056 14.8995 92.9697 17.8139Z" fill="#00E3D4"/>
</svg>
